<mxfile host="app.diagrams.net" modified="2022-10-01T05:36:51.795Z" agent="5.0 (Windows NT 10.0; Win64; x64) AppleWebKit/537.36 (KHTML, like Gecko) Chrome/105.0.0.0 Safari/537.36" etag="QiHD0GfoRBaDLOaZrhJM" version="20.2.8" type="github" pages="2">
  <diagram id="6swkYJqpi6CqnHYlvt3z" name="Istio機能">
    <mxGraphModel dx="1580" dy="889" grid="1" gridSize="10" guides="1" tooltips="1" connect="1" arrows="1" fold="1" page="1" pageScale="1" pageWidth="1169" pageHeight="827" math="0" shadow="0">
      <root>
        <mxCell id="0" />
        <mxCell id="1" parent="0" />
        <mxCell id="ow8KtugPBx5J6qX4pnFM-1" value="" style="shape=image;verticalLabelPosition=bottom;labelBackgroundColor=default;verticalAlign=top;aspect=fixed;imageAspect=0;image=https://image.itmedia.co.jp/ait/articles/2201/21/news013_msa_sec1.png;" vertex="1" parent="1">
          <mxGeometry x="50" y="170" width="551.96" height="190" as="geometry" />
        </mxCell>
        <mxCell id="ow8KtugPBx5J6qX4pnFM-2" value="" style="shape=image;verticalLabelPosition=bottom;labelBackgroundColor=default;verticalAlign=top;aspect=fixed;imageAspect=0;image=https://image.itmedia.co.jp/ait/articles/2201/21/news013_msa_sec2.png;" vertex="1" parent="1">
          <mxGeometry x="26.08" y="550" width="769.23" height="250" as="geometry" />
        </mxCell>
        <mxCell id="ow8KtugPBx5J6qX4pnFM-3" value="不正アクセスのリスク" style="text;whiteSpace=wrap;html=1;" vertex="1" parent="1">
          <mxGeometry x="50" y="10" width="150" height="30" as="geometry" />
        </mxCell>
        <mxCell id="ow8KtugPBx5J6qX4pnFM-4" value="盗聴のリスク" style="text;whiteSpace=wrap;html=1;" vertex="1" parent="1">
          <mxGeometry x="40" y="401" width="110" height="26" as="geometry" />
        </mxCell>
        <mxCell id="lq-CbOA-QZvW42LLkI0t-1" value="&lt;p style=&quot;overflow-wrap: break-word; margin: 0px 0px 20px; font-size: 14px; line-height: 26px; color: rgb(0, 0, 0); font-family: Meiryo, メイリオ, ArialMT, &amp;quot;Hiragino Kaku Gothic Pro&amp;quot;, &amp;quot;ヒラギノ角ゴ Pro W3&amp;quot;, Osaka, Verdana, &amp;quot;ＭＳ Ｐゴシック&amp;quot;; font-style: normal; font-variant-ligatures: normal; font-variant-caps: normal; font-weight: 400; letter-spacing: normal; orphans: 2; text-align: start; text-indent: 0px; text-transform: none; widows: 2; word-spacing: 0px; -webkit-text-stroke-width: 0px; background-color: rgb(255, 255, 255); text-decoration-thickness: initial; text-decoration-style: initial; text-decoration-color: initial;&quot;&gt;モノリシックなアプリケーションでは、サービスは1つのネットワークにあるサーバで動作するので、公開されたエンドポイントに着目したり、サーバのIPアドレスを特定することが可能であったりと、セキュリティ対策が比較的容易でした。&lt;/p&gt;&lt;p style=&quot;overflow-wrap: break-word; margin: 0px 0px 20px; font-size: 14px; line-height: 26px; color: rgb(0, 0, 0); font-family: Meiryo, メイリオ, ArialMT, &amp;quot;Hiragino Kaku Gothic Pro&amp;quot;, &amp;quot;ヒラギノ角ゴ Pro W3&amp;quot;, Osaka, Verdana, &amp;quot;ＭＳ Ｐゴシック&amp;quot;; font-style: normal; font-variant-ligatures: normal; font-variant-caps: normal; font-weight: 400; letter-spacing: normal; orphans: 2; text-align: start; text-indent: 0px; text-transform: none; widows: 2; word-spacing: 0px; -webkit-text-stroke-width: 0px; background-color: rgb(255, 255, 255); text-decoration-thickness: initial; text-decoration-style: initial; text-decoration-color: initial;&quot;&gt;　一方、マイクロサービスでは、サービスが頻繁かつ動的に分散配置されるので、割り当てられるIPアドレスが短期間で変化します。また、サービス間で通信し、サービス単位にエンドポイントを用意するので、不正アクセスされるリスクが高まります。&lt;/p&gt;" style="text;whiteSpace=wrap;html=1;fontSize=14;" vertex="1" parent="1">
          <mxGeometry x="60" y="40" width="1020" height="141" as="geometry" />
        </mxCell>
        <mxCell id="lq-CbOA-QZvW42LLkI0t-2" value="モノリシックなサービスの場合、プロセス間はメモリを用いて通信することが一般的でした。そのため、公開されたエンドポイントとの通信を暗号化することで一定のセキュリティレベルを保証できます。&#xa;&#xa;一方マイクロサービスの場合、ネットワーク経由でサービス同士が通信し合うことになります。そのため、仮にマイクロサービス間の通信が暗号化されていない場合、第三者から通信を傍受されるリスクが存在します。" style="text;whiteSpace=wrap;html=1;fontSize=14;" vertex="1" parent="1">
          <mxGeometry x="40" y="440" width="1060" height="96.5" as="geometry" />
        </mxCell>
      </root>
    </mxGraphModel>
  </diagram>
  <diagram id="SQd4Qgp3_3QCpeoj1O0k" name="External Secrets Operator">
    <mxGraphModel dx="1422" dy="800" grid="1" gridSize="10" guides="1" tooltips="1" connect="1" arrows="1" fold="1" page="1" pageScale="1" pageWidth="1169" pageHeight="827" math="0" shadow="0">
      <root>
        <mxCell id="0" />
        <mxCell id="1" parent="0" />
        <mxCell id="7YR7jttLbl9HT_AtteJ8-1" value="" style="shape=image;verticalLabelPosition=bottom;labelBackgroundColor=default;verticalAlign=top;aspect=fixed;imageAspect=0;image=https://image.itmedia.co.jp/ait/articles/2209/29/news015_externalSecretOperator-architecture.png;" vertex="1" parent="1">
          <mxGeometry x="20" y="20" width="637.2" height="560" as="geometry" />
        </mxCell>
        <mxCell id="7YR7jttLbl9HT_AtteJ8-2" value="GitLab プロジェクトでは、AirGapの場合も使えるのか。" style="text;html=1;strokeColor=none;fillColor=none;align=center;verticalAlign=middle;whiteSpace=wrap;rounded=0;" vertex="1" parent="1">
          <mxGeometry x="760" y="100" width="330" height="30" as="geometry" />
        </mxCell>
      </root>
    </mxGraphModel>
  </diagram>
</mxfile>
